<svg xmlns="http://www.w3.org/2000/svg" viewBox="0 0 1920 1080" fill="none">
  <defs>
    <linearGradient id="bg" x1="0" y1="0" x2="1920" y2="1080" gradientUnits="userSpaceOnUse">
      <stop stop-color="#050608"/>
      <stop offset="0.55" stop-color="#09090d"/>
      <stop offset="1" stop-color="#160d08"/>
    </linearGradient>
    <radialGradient id="amber" cx="0" cy="0" r="1" gradientTransform="translate(1380 240) rotate(24) scale(360 240)" gradientUnits="userSpaceOnUse">
      <stop stop-color="#D9AB66" stop-opacity="0.34"/>
      <stop offset="1" stop-color="#D9AB66" stop-opacity="0"/>
    </radialGradient>
    <radialGradient id="rose" cx="0" cy="0" r="1" gradientTransform="translate(480 300) rotate(-18) scale(260 180)" gradientUnits="userSpaceOnUse">
      <stop stop-color="#C79AA0" stop-opacity="0.16"/>
      <stop offset="1" stop-color="#C79AA0" stop-opacity="0"/>
    </radialGradient>
    <linearGradient id="glass" x1="1285" y1="170" x2="1285" y2="865" gradientUnits="userSpaceOnUse">
      <stop stop-color="#FFF2D2" stop-opacity="0.24"/>
      <stop offset="0.18" stop-color="#FFF2D2" stop-opacity="0.08"/>
      <stop offset="1" stop-color="#0D0B0F" stop-opacity="0.96"/>
    </linearGradient>
    <linearGradient id="cap" x1="1285" y1="110" x2="1285" y2="280" gradientUnits="userSpaceOnUse">
      <stop stop-color="#F1C980"/>
      <stop offset="1" stop-color="#B76D35"/>
    </linearGradient>
    <linearGradient id="liquid" x1="1285" y1="345" x2="1285" y2="765" gradientUnits="userSpaceOnUse">
      <stop stop-color="#F2C677"/>
      <stop offset="1" stop-color="#AF612F"/>
    </linearGradient>
  </defs>
  <rect width="1920" height="1080" fill="url(#bg)"/>
  <rect width="1920" height="1080" fill="url(#amber)"/>
  <rect width="1920" height="1080" fill="url(#rose)"/>
  <ellipse cx="1285" cy="900" rx="270" ry="64" fill="#D9AB66" fill-opacity="0.1"/>
  <g opacity="0.7">
    <ellipse cx="1548" cy="315" rx="215" ry="58" fill="#FFF6E8" fill-opacity="0.09"/>
    <ellipse cx="1670" cy="370" rx="180" ry="44" fill="#FFF6E8" fill-opacity="0.06"/>
  </g>
  <rect x="1168" y="150" width="236" height="126" rx="38" fill="url(#cap)"/>
  <rect x="1050" y="250" width="470" height="612" rx="120" fill="url(#glass)" stroke="#FFFFFF" stroke-opacity="0.12" stroke-width="2"/>
  <rect x="1155" y="410" width="260" height="250" rx="42" fill="#0E0C11" fill-opacity="0.9" stroke="#FFFFFF" stroke-opacity="0.08"/>
  <rect x="1162" y="348" width="246" height="410" rx="74" fill="#D9AB66" fill-opacity="0.12"/>
  <rect x="1222" y="320" width="126" height="420" rx="44" fill="url(#liquid)" fill-opacity="0.72"/>
  <path d="M1110 496C1198 474 1270 472 1390 500" stroke="#F6E9CB" stroke-opacity="0.24" stroke-width="3"/>
  <path d="M1106 524C1202 505 1294 505 1400 530" stroke="#F6E9CB" stroke-opacity="0.12" stroke-width="2"/>
</svg>